<mxfile host="Electron" modified="2024-07-13T04:33:18.446Z" agent="Mozilla/5.0 (Windows NT 10.0; Win64; x64) AppleWebKit/537.36 (KHTML, like Gecko) draw.io/24.6.1 Chrome/124.0.6367.207 Electron/30.0.6 Safari/537.36" etag="Vh4A-qXiTfHo66pDdrmQ" version="24.6.1" type="device">
  <diagram name="Page-1" id="e9rOLZdjZyUwD297O_5J">
    <mxGraphModel dx="1834" dy="605" grid="0" gridSize="10" guides="1" tooltips="1" connect="1" arrows="1" fold="1" page="0" pageScale="1" pageWidth="850" pageHeight="1100" math="0" shadow="0">
      <root>
        <mxCell id="0" />
        <mxCell id="1" parent="0" />
        <mxCell id="_0tGrCiE0NjY7-VfMG9f-1" value="&lt;h1 style=&quot;margin-top: 0px;&quot;&gt;Kata:&amp;nbsp;&lt;a href=&quot;https://nealford.com/katas/kata?id=HotDiggetyDog&quot;&gt;Hot Diggety Dog!&lt;/a&gt;&lt;/h1&gt;&lt;p style=&quot;font-size: 14px;&quot;&gt;&lt;font style=&quot;font-size: 14px;&quot;&gt;Local hot dog stand merchant wants a point-of-sale system for his hot dog stand operators&lt;/font&gt;&lt;/p&gt;&lt;ul style=&quot;font-size: 14px;&quot;&gt;&lt;li style=&quot;&quot;&gt;&lt;font style=&quot;font-size: 14px;&quot;&gt;Users: fifty or so hot dog stand operators, thousands of customers in the local area (via social-media)&lt;/font&gt;&lt;/li&gt;&lt;li style=&quot;&quot;&gt;&lt;font style=&quot;font-size: 14px;&quot;&gt;Requirements:&lt;/font&gt;&lt;/li&gt;&lt;ul style=&quot;&quot;&gt;&lt;li&gt;&lt;font style=&quot;font-size: 14px;&quot;&gt;must be lightweight in size--laptop is too unwieldy to use efficiently when making hot dogs on the street&lt;/font&gt;&lt;/li&gt;&lt;li&gt;&lt;font style=&quot;font-size: 14px;&quot;&gt;allow for discounts&lt;/font&gt;&lt;/li&gt;&lt;li&gt;&lt;font style=&quot;font-size: 14px;&quot;&gt;track sales by time and location&lt;/font&gt;&lt;/li&gt;&lt;li&gt;&lt;font style=&quot;font-size: 14px;&quot;&gt;send inventory updates to mobile inventory-management staff (who drive to the location with supplies)&lt;/font&gt;&lt;/li&gt;&lt;li&gt;&lt;font style=&quot;font-size: 14px;&quot;&gt;provide a social-media integration so customers can be notified when a hot dog stand is nearby&lt;/font&gt;&lt;/li&gt;&lt;li&gt;&lt;font style=&quot;font-size: 14px;&quot;&gt;export information in format importable by accounting tools&lt;/font&gt;&lt;/li&gt;&lt;/ul&gt;&lt;li style=&quot;&quot;&gt;&lt;font style=&quot;font-size: 14px;&quot;&gt;Additional Context:&lt;/font&gt;&lt;/li&gt;&lt;ul style=&quot;&quot;&gt;&lt;li style=&quot;&quot;&gt;&lt;font style=&quot;font-size: 14px;&quot;&gt;forced into undertaking this development because the current hodgepodge ways of tracking sales requires too much manual effort&lt;/font&gt;&lt;/li&gt;&lt;li style=&quot;&quot;&gt;&lt;font style=&quot;font-size: 14px;&quot;&gt;time to completion is important&lt;/font&gt;&lt;/li&gt;&lt;li style=&quot;&quot;&gt;&lt;font style=&quot;font-size: 14px;&quot;&gt;building a solution that won&#39;t need replacement in 3 years is more important&lt;/font&gt;&lt;/li&gt;&lt;li style=&quot;&quot;&gt;&lt;font style=&quot;font-size: 14px;&quot;&gt;no serious budget constraints&lt;/font&gt;&lt;/li&gt;&lt;/ul&gt;&lt;/ul&gt;" style="text;html=1;whiteSpace=wrap;overflow=hidden;rounded=0;" vertex="1" parent="1">
          <mxGeometry x="-563" y="81" width="973" height="362" as="geometry" />
        </mxCell>
        <mxCell id="_0tGrCiE0NjY7-VfMG9f-46" style="edgeStyle=orthogonalEdgeStyle;rounded=0;orthogonalLoop=1;jettySize=auto;html=1;startArrow=classic;startFill=1;" edge="1" parent="1" source="_0tGrCiE0NjY7-VfMG9f-40" target="_0tGrCiE0NjY7-VfMG9f-42">
          <mxGeometry relative="1" as="geometry" />
        </mxCell>
        <mxCell id="_0tGrCiE0NjY7-VfMG9f-40" value="POS App&lt;br&gt;(Stand Operator)&lt;div&gt;&lt;br/&gt;&lt;/div&gt;" style="rounded=0;whiteSpace=wrap;html=1;" vertex="1" parent="1">
          <mxGeometry x="-591" y="793" width="120" height="60" as="geometry" />
        </mxCell>
        <mxCell id="_0tGrCiE0NjY7-VfMG9f-47" style="edgeStyle=orthogonalEdgeStyle;rounded=0;orthogonalLoop=1;jettySize=auto;html=1;startArrow=classic;startFill=1;" edge="1" parent="1" source="_0tGrCiE0NjY7-VfMG9f-41">
          <mxGeometry relative="1" as="geometry">
            <mxPoint x="-410.79998779296875" y="967.2000427246094" as="targetPoint" />
            <Array as="points">
              <mxPoint x="-291" y="911" />
              <mxPoint x="-411" y="911" />
            </Array>
          </mxGeometry>
        </mxCell>
        <mxCell id="_0tGrCiE0NjY7-VfMG9f-41" value="Management App&lt;br&gt;(Manager)&lt;div&gt;&lt;br&gt;&lt;/div&gt;" style="rounded=0;whiteSpace=wrap;html=1;" vertex="1" parent="1">
          <mxGeometry x="-351" y="793" width="120" height="60" as="geometry" />
        </mxCell>
        <mxCell id="_0tGrCiE0NjY7-VfMG9f-48" style="edgeStyle=orthogonalEdgeStyle;rounded=0;orthogonalLoop=1;jettySize=auto;html=1;" edge="1" parent="1" source="_0tGrCiE0NjY7-VfMG9f-42" target="_0tGrCiE0NjY7-VfMG9f-43">
          <mxGeometry relative="1" as="geometry" />
        </mxCell>
        <mxCell id="_0tGrCiE0NjY7-VfMG9f-42" value="API Gateway" style="rounded=0;whiteSpace=wrap;html=1;" vertex="1" parent="1">
          <mxGeometry x="-471" y="968" width="120" height="60" as="geometry" />
        </mxCell>
        <mxCell id="_0tGrCiE0NjY7-VfMG9f-49" style="edgeStyle=orthogonalEdgeStyle;rounded=0;orthogonalLoop=1;jettySize=auto;html=1;entryX=0.5;entryY=0;entryDx=0;entryDy=0;" edge="1" parent="1" source="_0tGrCiE0NjY7-VfMG9f-43" target="_0tGrCiE0NjY7-VfMG9f-44">
          <mxGeometry relative="1" as="geometry" />
        </mxCell>
        <mxCell id="_0tGrCiE0NjY7-VfMG9f-57" style="edgeStyle=orthogonalEdgeStyle;rounded=0;orthogonalLoop=1;jettySize=auto;html=1;entryX=0.5;entryY=0;entryDx=0;entryDy=0;exitX=0.5;exitY=1;exitDx=0;exitDy=0;" edge="1" parent="1" source="_0tGrCiE0NjY7-VfMG9f-43" target="_0tGrCiE0NjY7-VfMG9f-56">
          <mxGeometry relative="1" as="geometry">
            <Array as="points">
              <mxPoint x="-411" y="1181" />
              <mxPoint x="-171" y="1181" />
            </Array>
          </mxGeometry>
        </mxCell>
        <mxCell id="_0tGrCiE0NjY7-VfMG9f-43" value="Application &lt;br&gt;Backend" style="rounded=0;whiteSpace=wrap;html=1;" vertex="1" parent="1">
          <mxGeometry x="-471" y="1089" width="120" height="60" as="geometry" />
        </mxCell>
        <mxCell id="_0tGrCiE0NjY7-VfMG9f-44" value="Database" style="rounded=0;whiteSpace=wrap;html=1;" vertex="1" parent="1">
          <mxGeometry x="-471" y="1212" width="120" height="60" as="geometry" />
        </mxCell>
        <mxCell id="_0tGrCiE0NjY7-VfMG9f-56" value="External Payment System" style="rounded=0;whiteSpace=wrap;html=1;fillColor=#DEDEDE;gradientColor=none;strokeColor=#666666;gradientDirection=radial;" vertex="1" parent="1">
          <mxGeometry x="-231" y="1212" width="120" height="60" as="geometry" />
        </mxCell>
      </root>
    </mxGraphModel>
  </diagram>
</mxfile>
